HIERARCHY
ROOT Hips
{
	OFFSET 0 0 0
	CHANNELS 6 Xposition Yposition Zposition Yrotation Xrotation Zrotation
	JOINT Spine
	{
		OFFSET -0 8.38078 -2.67137
		CHANNELS 3 Yrotation Xrotation Zrotation
		JOINT Spine1
		{
			OFFSET -0 10.2701 0
			CHANNELS 3 Yrotation Xrotation Zrotation
			JOINT Spine2
			{
				OFFSET -0 10.2701 0
				CHANNELS 3 Yrotation Xrotation Zrotation
				JOINT Spine3
				{
					OFFSET -0 10.2701 0
					CHANNELS 3 Yrotation Xrotation Zrotation
					JOINT Neck
					{
						OFFSET -0 16.9472 3.67137
						CHANNELS 3 Yrotation Xrotation Zrotation
						JOINT Head
						{
							OFFSET -0 10.476 0
							CHANNELS 3 Yrotation Xrotation Zrotation
							End Site
							{
								OFFSET -0 15 0
							}
						}
					}
					JOINT LeftShoulder
					{
						OFFSET 1.74599 4.87741 3.49199
						CHANNELS 3 Yrotation Xrotation Zrotation
						JOINT LeftArm
						{
							OFFSET 19.9293 0 0
							CHANNELS 3 Yrotation Xrotation Zrotation
							JOINT LeftForeArm
							{
								OFFSET 25.2203 0 0
								CHANNELS 3 Yrotation Xrotation Zrotation
								JOINT LeftHand
								{
									OFFSET 22.6882 0 0
									CHANNELS 3 Yrotation Xrotation Zrotation
									End Site
									{
										OFFSET 15 0 0
									}
								}
							}
						}
					}
					JOINT RightShoulder
					{
						OFFSET -1.74599 4.87741 3.49199
						CHANNELS 3 Yrotation Xrotation Zrotation
						JOINT RightArm
						{
							OFFSET -19.9293 0 0
							CHANNELS 3 Yrotation Xrotation Zrotation
							JOINT RightForeArm
							{
								OFFSET -25.2203 0 0
								CHANNELS 3 Yrotation Xrotation Zrotation
								JOINT RightHand
								{
									OFFSET -22.6882 0 0
									CHANNELS 3 Yrotation Xrotation Zrotation
									End Site
									{
										OFFSET -15 0 0
									}
								}
							}
						}
					}
				}
			}
		}
	}
	JOINT LeftUpLeg
	{
		OFFSET 10.476 -3.49199 2
		CHANNELS 3 Yrotation Xrotation Zrotation
		JOINT LeftLeg
		{
			OFFSET -0 -42.329 2.44439
			CHANNELS 3 Yrotation Xrotation Zrotation
			JOINT LeftFoot
			{
				OFFSET -0 -39.8175 -2.44439
				CHANNELS 3 Yrotation Xrotation Zrotation
				JOINT LeftToeBase
				{
					OFFSET -0 -6.74129 15.714
					CHANNELS 3 Yrotation Xrotation Zrotation
					End Site
					{
						OFFSET -0 0 5
					}
				}
			}
		}
	}
	JOINT RightUpLeg
	{
		OFFSET -10.476 -3.49199 2
		CHANNELS 3 Yrotation Xrotation Zrotation
		JOINT RightLeg
		{
			OFFSET -0 -42.329 2.44439
			CHANNELS 3 Yrotation Xrotation Zrotation
			JOINT RightFoot
			{
				OFFSET -0 -39.8175 -2.44439
				CHANNELS 3 Yrotation Xrotation Zrotation
				JOINT RightToeBase
				{
					OFFSET -0 -6.74129 15.714
					CHANNELS 3 Yrotation Xrotation Zrotation
					End Site
					{
						OFFSET -0 0 5
					}
				}
			}
		}
	}
}
MOTION
Frames: 8
Frame Time: 0.00833333
202.814417 92.380554 -73.081268 -9.240302 8.142172 5.550841 0.970653 5.083095 -2.500204 0.553638 3.444406 -1.943741 1.354543 1.932543 -2.084945 0.872482 0.696839 -1.344570 -2.331287 -2.808073 -0.802023 -1.057394 9.051564 -1.931978 -1.880709 -7.730556 12.201354 -26.546753 -10.866908 0.522923 -49.156872 10.977363 35.507379 7.694612 -16.293617 20.328336 0.971186 -7.947211 -13.708714 28.035059 -14.631254 6.311135 56.691749 8.393059 -27.596748 -4.105795 -15.465303 -23.300053 26.950046 -52.918712 -20.272287 0.000000 75.248980 0.000000 6.974598 -14.340097 7.603826 0.000000 -17.188171 0.000000 -4.352947 2.678186 -3.818367 0.000000 42.936635 0.000000 -10.051396 8.824767 -15.172550 0.000000 1.285243 0.000000
202.745190 92.972021 -70.011237 -9.035690 7.533678 5.249561 0.992339 4.974209 -2.414308 0.601530 3.530548 -1.682822 1.104321 1.986609 -2.097015 0.749211 1.168745 -0.973760 -1.821905 -2.309547 -1.596072 -0.735511 9.563223 -1.070684 -1.880492 -7.754683 12.275675 -27.249879 -12.036709 0.647956 -48.993248 10.809030 34.293487 7.323470 -15.676640 21.665650 1.088929 -7.953573 -14.846715 28.056511 -15.317831 6.072642 56.148343 8.042189 -25.753522 -3.747069 -14.111812 -24.992057 26.205935 -51.905513 -19.227866 0.000000 72.528301 0.000000 6.042088 -14.198969 7.651909 0.000000 -16.872937 0.000000 -4.877677 0.967684 -3.452551 0.000000 48.338400 0.000000 -9.402653 8.219824 -15.163059 0.000000 -4.301119 0.000000
202.651184 93.546979 -67.143744 -8.409408 7.130749 5.191872 0.732420 4.915741 -2.615236 0.392418 3.563010 -1.615236 1.200790 2.178883 -1.826589 0.732058 1.385470 -1.071018 -1.559149 -1.879688 -1.520405 -0.600038 9.920856 -0.672851 -2.420442 -7.573883 12.756136 -28.127319 -12.705039 1.004943 -48.126480 10.438537 33.240458 6.966704 -15.436815 22.835806 0.672188 -7.900983 -15.273393 28.764894 -16.378825 5.635342 54.830259 7.353810 -23.572441 -3.309687 -12.927047 -26.397949 25.332354 -50.959493 -18.476187 0.000000 69.046687 0.000000 4.562594 -13.313887 7.219516 0.000000 -17.899933 0.000000 -5.508495 -0.933122 -3.002633 0.000000 53.341548 0.000000 -8.980064 6.878597 -15.479979 0.000000 -8.695267 0.000000
202.580884 93.999445 -64.237823 -8.096145 6.553226 4.960230 0.578957 5.004508 -2.633487 0.258114 3.634156 -1.441379 1.160995 2.177425 -1.906167 0.831726 1.626832 -0.775308 -1.100630 -1.366236 -1.718961 -0.369285 10.554848 -0.535136 -3.032652 -7.141631 13.107862 -29.079062 -13.389752 1.306945 -46.780615 9.945075 31.732541 6.563232 -15.501149 24.715736 0.725347 -7.338780 -16.019587 29.484750 -17.777310 5.384788 52.925965 6.376181 -21.585738 -3.009217 -11.912325 -27.070330 24.125783 -49.846688 -17.306716 0.000000 65.843494 0.000000 3.527161 -12.934727 6.681976 0.000000 -18.146806 0.000000 -5.884632 -2.703076 -2.365698 0.000000 58.212545 0.000000 -9.096514 5.196259 -16.064495 0.000000 -7.069118 0.000000
202.521082 94.407233 -61.409253 -7.790038 6.008973 4.641046 0.467342 5.144565 -2.420235 -0.003415 3.705330 -1.385396 0.913976 2.310724 -2.201828 0.824191 1.710674 -0.276655 -0.678453 -0.735755 -1.875056 -0.175908 10.792495 -0.615302 -3.499419 -6.949674 13.484442 -29.861077 -13.688431 1.312700 -45.219144 9.176605 30.288681 6.395081 -14.674848 25.307983 1.388169 -6.894981 -16.633817 30.552713 -18.721671 4.931639 50.262831 5.220113 -19.679441 -3.129746 -11.214769 -27.802154 22.720328 -48.702391 -16.013574 0.000000 62.440376 0.000000 2.702874 -12.538159 6.246268 0.000000 -18.108966 0.000000 -6.315416 -5.009909 -1.549114 0.000000 63.083517 0.000000 -10.138278 4.461769 -16.167099 0.000000 -4.888855 0.000000
202.491003 94.753625 -58.622620 -7.626964 5.455393 4.235796 0.327429 5.338805 -2.186693 -0.249910 3.852936 -1.281384 0.755033 2.393175 -2.196741 0.686040 1.810199 -0.137085 0.041731 -0.503558 -2.100090 0.142767 11.551852 -0.866210 -4.154152 -6.815083 13.927034 -30.463176 -14.095097 1.198169 -43.212756 8.454974 28.608173 6.023067 -14.120636 25.633621 2.345411 -6.476250 -17.164592 31.945034 -19.194154 4.411773 46.770573 4.006086 -18.103202 -2.699005 -11.013721 -27.960958 21.234734 -47.511824 -14.620373 0.000000 58.895120 0.000000 2.297337 -12.087970 5.603968 0.000000 -18.076254 0.000000 -6.757132 -7.709116 -0.620114 0.000000 67.672449 0.000000 -11.708194 4.409360 -16.314196 0.000000 -5.151236 0.000000
202.465955 95.067224 -55.880560 -7.566368 4.807078 3.866331 0.228674 5.700429 -2.017324 -0.347720 4.021892 -1.108982 0.967134 2.553419 -1.960330 0.577233 2.021078 -0.844608 0.185344 -0.414245 -1.226013 0.055558 12.020616 -1.495235 -5.601638 -6.656531 14.992850 -31.045609 -14.645652 1.229590 -41.122962 7.210749 26.708837 5.700255 -13.153966 25.258788 2.894381 -6.375765 -16.889948 33.526583 -19.309280 3.545661 42.528985 2.895757 -16.254154 -2.355077 -10.655291 -27.820852 19.792443 -46.040751 -13.178245 0.000000 54.939774 0.000000 1.899433 -11.404839 4.633057 0.000000 -18.282323 0.000000 -7.198105 -10.358020 0.329360 0.000000 71.650635 0.000000 -13.377091 3.685724 -16.823544 0.000000 -6.519016 0.000000
202.488721 95.331470 -53.164545 -7.616876 4.086185 3.612754 0.267995 5.981179 -2.002332 -0.197140 4.582972 -0.962725 0.832310 2.747438 -1.577308 0.139754 1.870031 -1.391326 0.556890 -0.164363 -0.855658 0.144753 12.405621 -1.767466 -6.711979 -6.433416 15.698321 -31.808471 -15.584792 1.498182 -38.737558 6.110643 24.068491 5.554162 -11.947047 24.757164 4.111464 -6.258053 -17.020617 34.950150 -19.293543 2.946846 37.985898 1.683535 -14.229972 -2.075934 -9.880233 -26.910287 18.403433 -44.269277 -11.885218 0.000000 50.632321 0.000000 1.948040 -10.853718 3.798717 0.000000 -18.098080 0.000000 -7.855139 -12.883310 1.139748 0.000000 74.982562 0.000000 -14.559011 2.138678 -18.311744 0.000000 -7.301325 0.000000
